PathFileType	4	(X/Y/Z)	5_coords_data.trc
DataRate	CameraRate	NumFrames	NumMarkers	Units	OrigDataRate	OrigDataStartFrame	OrigNumFrames
30.0	30.0	5	21	m	30.0	10	77
Frame#	Time	THUMB_TIP	THUMB_IP	THUMB_MCP	THUMB_CMC	INDEX_TIP	INDEX_DIP	INDEX_PIP	INDEX_MCP	MIDDLE_TIP	MIDDLE_DIP	MIDDLE_PIP	MIDDLE_MCP	RING_TIP	RING_DIP	RING_PIP	RING_MCP	PINKY_TIP	PINKY_DIP	PINKY_PIP	PINKY_MCP	WRIST
X1	Y1	Z1	X2	Y2	Z2	X3	Y3	Z3	X4	Y4	Z4	X5	Y5	Z5	X6	Y6	Z6	X7	Y7	Z7	X8	Y8	Z8	X9	Y9	Z9	X10	Y10	Z10	X11	Y11	Z11	X12	Y12	Z12	X13	Y13	Z13	X14	Y14	Z14	X15	Y15	Z15	X16	Y16	Z16	X17	Y17	Z17	X18	Y18	Z18	X19	Y19	Z19	X20	Y20	Z20	X21	Y21	Z21
9	0.3	-0.015832799911499024	-0.0555625	0.9873800048828125	-0.011315299987792968	-0.07694090270996094	0.9943800048828125	-0.024407899856567383	-0.08573100280761718	1.01875	-0.03352500152587891	-0.05787360000610352	1.03047998046875	-0.02155820083618164	-0.061627700805664064	1.0189400024414061	-0.023071800231933594	-0.06960600280761718	1.0011400146484375	-0.025826900482177735	-0.07889569854736328	0.9813610229492188	-0.06554859924316406	-0.07975650024414062	0.9861170043945312	-0.027341400146484375	-0.053601200103759766	1.0117100219726562	-0.02433799934387207	-0.05360829925537109	1.001780029296875	-0.02564189910888672	-0.06038040161132813	0.9754190063476562	-0.06807849884033203	-0.06101910018920898	0.9800919799804687	-0.030376800537109373	-0.03650469970703125	1.023469970703125	-0.025350099563598634	-0.039558498382568356	1.003010009765625	-0.023764799118041992	-0.04228440093994141	0.9780579833984375	-0.0646269989013672	-0.04248149871826172	0.9789019775390625	-0.035649799346923826	-0.0255039005279541	1.0130399780273438	-0.024431299209594727	-0.026198699951171876	1.0043300170898437	-0.02370159912109375	-0.02657900047302246	0.9858790283203125	-0.05305329895019531	-0.024813999176025392	0.9810789794921875	-0.052704498291015624	-0.029460599899291992	1.0456500244140625
10	0.3333333333333333	-0.015906100273132325	-0.055532798767089844	0.9874320068359375	-0.011335599899291992	-0.07694419860839843	0.994343994140625	-0.02454159927368164	-0.08566850280761719	1.018760009765625	-0.0334905014038086	-0.05774879837036133	1.0304300537109374	-0.021539899826049806	-0.06111819839477539	1.0185800170898438	-0.023527299880981446	-0.0698563003540039	1.00122998046875	-0.026040800094604494	-0.07887409973144531	0.9813900146484374	-0.06566960144042969	-0.07959230041503906	0.9861580200195312	-0.027387399673461914	-0.05383029937744141	1.01127001953125	-0.02445669937133789	-0.05346540069580078	1.0019199829101562	-0.025801799774169923	-0.06030780029296875	0.9754130249023437	-0.06815249633789063	-0.06086520004272461	0.9801690063476562	-0.029868099212646486	-0.03606169891357422	1.023280029296875	-0.025451000213623048	-0.03955939865112305	1.0030999755859376	-0.02380419921875	-0.04224909973144531	0.9780460205078125	-0.06467960357666015	-0.0423557014465332	0.9789970092773438	-0.03571739959716797	-0.02572060012817383	1.01225	-0.024198699951171875	-0.02632819938659668	1.0041900024414063	-0.023701900482177733	-0.026565099716186525	0.9859169921875	-0.05293320083618164	-0.02471529960632324	0.98110302734375	-0.052549800872802734	-0.029504400253295898	1.04581005859375
11	0.36666666666666664	-0.015801300048828126	-0.05551350021362305	0.9871160278320312	-0.011349800109863282	-0.07694180297851562	0.9942680053710937	-0.02475040054321289	-0.08562640380859375	1.0188200073242188	-0.03335720062255859	-0.05762220001220703	1.03031005859375	-0.02079199981689453	-0.06150839996337891	1.0176400146484375	-0.02345050048828125	-0.069685302734375	1.001030029296875	-0.02599329948425293	-0.0787394027709961	0.9814600219726562	-0.06552960205078125	-0.07951869964599609	0.986447998046875	-0.027616300582885743	-0.05372869873046875	1.0115399780273437	-0.02448649978637695	-0.05349449920654297	1.0019199829101562	-0.025760400772094728	-0.060175701141357424	0.9754819946289063	-0.06813379669189454	-0.060703899383544924	0.9802069702148437	-0.030284900665283204	-0.03655440139770508	1.0235599975585938	-0.025437000274658204	-0.03947430038452148	1.0031400146484375	-0.023790599822998047	-0.042138500213623045	0.9780650024414063	-0.06462539672851562	-0.042212299346923825	0.9790059814453125	-0.03584130096435547	-0.025768699645996093	1.01252001953125	-0.024296600341796874	-0.02609720039367676	1.0045	-0.02365519905090332	-0.026444900512695314	0.986156005859375	-0.05295949935913086	-0.02455240058898926	0.9812730102539062	-0.0526254997253418	-0.02932119941711426	1.0457900390625
12	0.4	-0.015812700271606445	-0.055314701080322264	0.9879130249023438	-0.011383000373840333	-0.07689479827880859	0.9942470092773438	-0.0246112003326416	-0.08566539764404296	1.0188800048828126	-0.033219398498535155	-0.05765039825439453	1.0305	-0.021587099075317383	-0.060725101470947264	1.0188900146484374	-0.023229299545288087	-0.06942749786376953	1.0013300170898438	-0.025917299270629884	-0.07868949890136719	0.9815369873046875	-0.06550389862060547	-0.07929560089111329	0.9863060302734376	-0.027426300048828126	-0.053629199981689454	1.0118400268554688	-0.02431399917602539	-0.05331150054931641	1.0020900268554687	-0.02564109992980957	-0.06009400177001953	0.9756290283203125	-0.06801460266113281	-0.06058739852905273	0.9803280029296875	-0.03035499954223633	-0.03582310104370117	1.0239500122070313	-0.025358699798583986	-0.03943970108032226	1.003280029296875	-0.023644800186157226	-0.04204000091552734	0.9782449951171875	-0.06444519805908203	-0.04209180068969726	0.9791389770507812	-0.03515019989013672	-0.024851600646972657	1.014	-0.02418600082397461	-0.02602549934387207	1.0045900268554688	-0.023454299926757814	-0.026368099212646483	0.9864010009765625	-0.05277009963989258	-0.024434000015258788	0.9814219970703125	-0.05234280014038086	-0.02934040069580078	1.0460400390625
13	0.43333333333333335	-0.01563920021057129	-0.055417198181152344	0.9881539916992188	-0.01115779972076416	-0.07689949798583984	0.9945900268554687	-0.024520099639892576	-0.08566449737548829	1.0191699829101561	-0.033298198699951174	-0.05770930099487305	1.030760009765625	-0.021343799591064454	-0.061086200714111326	1.018780029296875	-0.023140499114990234	-0.06952320098876953	1.0016799926757813	-0.025705900192260742	-0.078693603515625	0.9818109741210937	-0.06542400360107421	-0.07920860290527344	0.98647998046875	-0.026874099731445313	-0.053378799438476565	1.012719970703125	-0.024165199279785155	-0.05333060073852539	1.002469970703125	-0.025483299255371093	-0.060125	0.9758350219726563	-0.06776850128173828	-0.06050410079956055	0.9803699951171875	-0.029311899185180665	-0.035551799774169925	1.0238099975585937	-0.025177499771118165	-0.03938880157470703	1.0035900268554687	-0.023426399230957032	-0.042051200866699216	0.9785269775390625	-0.06438909912109375	-0.041993598937988284	0.9795469970703125	-0.03530920028686523	-0.02549760055541992	1.01297998046875	-0.023891000747680663	-0.026137399673461913	1.005	-0.023246000289916992	-0.026421100616455077	0.9867340087890625	-0.05252389907836914	-0.024408700942993165	0.9816209716796875	-0.05221879959106445	-0.02932379913330078	1.0463199462890624
